<svg width="24" height="24" viewBox="0 0 24 24" fill="none" xmlns="http://www.w3.org/2000/svg">
<path d="M23.5264 4.33147C23.5264 3.97255 23.5025 3.61363 23.4786 3.27863C23.3829 2.36936 23.2154 1.50794 22.9282 0.670456C22.0908 0.431174 21.2054 0.287605 20.2961 0.239749C20.1286 0.239749 19.9611 0.21582 19.7936 0.21582C16.7308 0.21582 13.9552 1.43616 11.9213 3.4222C11.1077 3.23078 10.2941 3.13506 9.43273 3.13506C7.11169 3.13506 4.95815 3.82898 3.16354 5.02539C2.42176 5.52788 1.72784 6.10216 1.12964 6.74822C1.32106 7.63357 1.6082 8.47105 1.99105 9.26068C3.37889 12.1321 5.93921 14.3095 9.04988 15.2188C10.0309 18.0902 12.1127 20.4352 14.8166 21.7273C15.5823 22.1101 16.4198 22.3973 17.2812 22.5887C17.9033 21.9905 18.4776 21.2966 18.9562 20.5548C20.0808 18.7841 20.7508 16.7024 20.7508 14.4531C20.7508 13.6156 20.6551 12.8021 20.4876 12.0364C22.3779 10.0264 23.5264 7.29857 23.5264 4.33147ZM8.45167 11.5578C8.45167 11.9167 8.4756 12.2756 8.49953 12.6106C6.27421 11.6056 4.52745 9.76318 3.66603 7.44214C5.22136 6.17395 7.23133 5.38431 9.4088 5.38431C9.69594 5.38431 9.95915 5.40824 10.2463 5.43217C9.12166 7.20286 8.45167 9.30854 8.45167 11.5578ZM10.8924 13.3046C10.7727 12.7303 10.7249 12.156 10.7249 11.5578C10.7249 9.45211 11.4427 7.53785 12.6391 6.00645C15.1037 6.93965 17.0419 8.90176 17.9272 11.3664C16.3719 12.6346 14.3619 13.4242 12.1845 13.4242C11.7538 13.3763 11.3231 13.3524 10.8924 13.3046ZM16.5633 20.0284C14.4337 19.2148 12.7109 17.6595 11.682 15.6495C11.8495 15.6495 12.017 15.6734 12.1845 15.6734C14.5055 15.6734 16.659 14.9795 18.4537 13.7831C18.4776 14.0224 18.4776 14.2378 18.4776 14.477C18.4776 16.5588 17.7837 18.473 16.5633 20.0284ZM14.3859 4.28362C15.8933 3.15899 17.7597 2.489 19.7936 2.489C20.2483 2.489 20.679 2.51293 21.0858 2.58471C21.2054 3.15899 21.2533 3.73327 21.2533 4.33147C21.2533 6.26966 20.6551 8.06427 19.6022 9.5239C18.5015 7.25071 16.659 5.38431 14.3859 4.28362Z" fill="#0E6FFF"/>
<path d="M9.43266 17.8746C9.43266 17.8746 9.33694 16.9175 8.30803 15.9364C7.27912 14.9554 6.32199 14.8836 6.32199 14.8836C-0.353983 13.6393 0.770643 23.737 0.770643 23.737C0.770643 23.737 10.8923 24.5027 9.43266 17.8746ZM2.92418 21.4878C2.92418 21.4878 2.75669 16.75 5.86735 17.085C5.86735 17.085 6.32199 17.085 6.77662 17.5157C7.23126 17.9464 7.23126 18.401 7.23126 18.401C7.66197 21.4878 2.92418 21.4878 2.92418 21.4878Z" fill="#0E6FFF"/>
</svg>
